<?xml version="1.0" encoding="UTF-8" standalone="no"?>
<!-- Created with Inkscape (http://www.inkscape.org/) -->

<svg
   version="1.1"
   id="svg1"
   width="150.66667"
   height="186.66667"
   viewBox="0 0 150.66667 186.66667"
   sodipodi:docname="beciplogo.svg"
   inkscape:version="1.4 (86a8ad7, 2024-10-11)"
   xmlns:inkscape="http://www.inkscape.org/namespaces/inkscape"
   xmlns:sodipodi="http://sodipodi.sourceforge.net/DTD/sodipodi-0.dtd"
   xmlns="http://www.w3.org/2000/svg"
   xmlns:svg="http://www.w3.org/2000/svg">
  <defs
     id="defs1" />
  <sodipodi:namedview
     id="namedview1"
     pagecolor="#ffffff"
     bordercolor="#000000"
     borderopacity="0.25"
     inkscape:showpageshadow="2"
     inkscape:pageopacity="0.0"
     inkscape:pagecheckerboard="0"
     inkscape:deskcolor="#d1d1d1"
     showgrid="true"
     showguides="false"
     inkscape:lockguides="true"
     inkscape:zoom="4.5949313"
     inkscape:cx="62.242498"
     inkscape:cy="111.53594"
     inkscape:window-width="2560"
     inkscape:window-height="1494"
     inkscape:window-x="-11"
     inkscape:window-y="-11"
     inkscape:window-maximized="1"
     inkscape:current-layer="g1">
    <sodipodi:guide
       position="14.619401,179.28002"
       orientation="1,0"
       id="guide1"
       inkscape:locked="true" />
    <sodipodi:guide
       position="15.388843,191.12943"
       orientation="1,0"
       id="guide2"
       inkscape:locked="true" />
    <inkscape:grid
       id="grid6"
       units="px"
       originx="0"
       originy="0"
       spacingx="0.99999999"
       spacingy="0.99999999"
       empcolor="#0099e5"
       empopacity="0.30196078"
       color="#0099e5"
       opacity="0.14901961"
       empspacing="5"
       enabled="true"
       visible="true" />
  </sodipodi:namedview>
  <g
     inkscape:groupmode="layer"
     inkscape:label="Image"
     id="g1">
    <rect
       style="display:inline;fill:#2a9b69;fill-opacity:1;stroke-width:1.24802"
       id="rect6"
       width="150.60072"
       height="186.77548"
       x="0"
       y="-0.10881556"
       inkscape:label="Fond" />
    <g
       id="g6"
       style="display:inline;fill:#9dc9ca;fill-opacity:1">
      <rect
         style="fill:#9dc9ca;fill-opacity:1"
         id="rect1"
         width="122.34131"
         height="8.6177521"
         x="14.291202"
         y="54.059917"
         sodipodi:insensitive="true" />
      <rect
         style="fill:#9dc9ca;fill-opacity:1"
         id="rect1-4"
         width="122.34131"
         height="8.6177521"
         x="14.291202"
         y="168.30643"
         sodipodi:insensitive="true" />
      <rect
         style="fill:#9dc9ca;fill-opacity:1;stroke-width:1.2956"
         id="rect1-8"
         width="122.34131"
         height="14.465512"
         x="14.291202"
         y="-79.833992"
         transform="scale(1,-1)"
         sodipodi:insensitive="true" />
      <rect
         style="fill:#9dc9ca;fill-opacity:1;stroke-width:1.2956"
         id="rect1-8-1"
         width="122.34131"
         height="14.465512"
         x="14.291202"
         y="-96.990311"
         transform="scale(1,-1)"
         sodipodi:insensitive="true" />
      <rect
         style="fill:#9dc9ca;fill-opacity:1;stroke-width:1.2956"
         id="rect1-8-1-2"
         width="122.34131"
         height="14.465512"
         x="14.291202"
         y="-114.14664"
         transform="scale(1,-1)"
         sodipodi:insensitive="true" />
      <rect
         style="fill:#9dc9ca;fill-opacity:1;stroke-width:1.2956"
         id="rect1-8-1-23"
         width="122.34131"
         height="14.465512"
         x="14.291202"
         y="-131.30296"
         transform="scale(1,-1)"
         sodipodi:insensitive="true" />
      <rect
         style="fill:#9dc9ca;fill-opacity:1;stroke-width:1.2956"
         id="rect1-8-1-8"
         width="122.34131"
         height="14.465512"
         x="14.291202"
         y="-148.45929"
         transform="scale(1,-1)"
         sodipodi:insensitive="true" />
      <rect
         style="fill:#9dc9ca;fill-opacity:1;stroke-width:1.2956"
         id="rect1-8-1-89"
         width="122.34131"
         height="14.465512"
         x="14.291202"
         y="-165.61562"
         transform="scale(1,-1)"
         sodipodi:insensitive="true" />
    </g>
    <circle
       style="display:inline;fill:#ffe100;fill-opacity:1"
       id="path2"
       cx="75.082733"
       cy="115.23567"
       r="44.558743" />
    <circle
       style="display:inline;fill:#ffe100;fill-opacity:1;stroke-width:0.168476"
       id="path2-3"
       cx="101.5"
       cy="13.472294"
       r="7.5070457" />
    <rect
       style="fill:#ffe100;fill-opacity:1;stroke-width:1.03286"
       id="rect3"
       width="2.9999995"
       height="24"
       x="100"
       y="23" />
    <rect
       style="fill:#ffe100;stroke-width:1.28552;fill-opacity:1"
       id="rect3-8-7"
       width="2.7203889"
       height="41"
       x="46.114239"
       y="6" />
    <rect
       style="fill:#ffe100;stroke-width:1.34996;fill-opacity:1"
       id="rect3-8-7-8"
       width="3.0000002"
       height="41"
       x="19"
       y="6" />
    <rect
       style="fill:#ffe100;stroke-width:0.663315;fill-opacity:1"
       id="rect3-8-7-8-8"
       width="2.7279608"
       height="10.885762"
       x="6"
       y="-57"
       transform="rotate(90)" />
    <rect
       style="fill:#ffe100;stroke-width:0.662394;fill-opacity:1"
       id="rect3-8-7-8-8-8"
       width="2.7203889"
       height="10.885763"
       x="44.27961"
       y="-57"
       transform="rotate(90)" />
    <rect
       style="fill:#ffe100;stroke-width:0.448923;fill-opacity:1"
       id="rect3-8-7-8-8-8-0"
       width="2.7203889"
       height="4.9999981"
       x="16"
       y="-53"
       transform="rotate(90)" />
    <path
       style="fill:#ffe100;fill-opacity:1"
       d="m 122.63513,5.9848556 c 2.17631,-0.1088156 6.9642,4.3526224 6.9642,15.5606244 0,11.208002 -4.46144,15.451809 -6.74657,15.342993 -2.28512,-0.108815 -2.39394,-3.373282 -0.32644,-3.373282 2.06749,0 4.35262,-3.373282 4.46143,-11.860895 0.10882,-8.487614 -2.8292,-12.4049737 -4.35262,-12.5137893 -1.52342,-0.1088156 0,-3.1556511 0,-3.1556511 z"
       id="path5" />
    <rect
       style="fill:#ffe100;stroke-width:1.28579;fill-opacity:1"
       id="rect3-8"
       width="2.7203889"
       height="41.017082"
       x="120.08302"
       y="5.9829164"
       inkscape:label="P" />
    <path
       style="fill:#ffe100;fill-opacity:1"
       d="M 22,6.0000001 C 23.966626,6 28.591287,8.9999998 28.591287,16 28.591287,23 24.576424,27.298962 22,27.149481 19.423577,27 21,24 21,24 c 0,0 0,0 1,0 1,0 4,-2 4,-7 0,-5 -2,-8.0454333 -4,-8.0227166 -2,0.022717 0,-2.9772833 0,-2.9772833 z"
       id="path6" />
    <path
       style="fill:#ffe100;fill-opacity:1;stroke-width:1.08379"
       d="M 22.257939,25.846744 C 24.567919,25.846743 30,28.846743 30,35.846743 c 0,7 -4.715818,11.298962 -7.742061,11.149481 -3.026241,-0.149481 -1.17459,-3.149481 -1.17459,-3.149481 0,0 0,0 1.17459,0 1.17459,0 4.698361,-2 4.698361,-7 0,-5 -2.34918,-8.045433 -4.698361,-8.022716 -2.34918,0.02272 0,-2.977283 0,-2.977283 z"
       id="path6-8" />
    <path
       style="fill:#ffe100;fill-opacity:1"
       d="m 81.984064,6 0.01594,3.0000001 c 0,0 -7.059084,1.3601959 -7,18.9999999 0.05908,17.639804 7.061007,16.27961 7.061007,16.27961 L 81.984064,47 c 0,0 -9.984063,2 -9.984063,-19 0,-20.9999999 9.984063,-22 9.984063,-22 z"
       id="path7" />
  </g>
</svg>
